<svg xmlns='http://www.w3.org/2000/svg' width="650" height="300" version="1.1">
    <ellipse cx="230" cy="240" rx="70" ry="20" fill="#d3d3d3" />
    <circle cx="230" cy="130" r="110" fill="#ffa500" />
    <circle cx="220" cy="95" r="40" fill="#ffffff" />
    <circle cx="280" cy="95" r="40" fill="#ffffff" />
    <circle cx="230" cy="95" r="9" fill="#000000" />
    <circle cx="290" cy="95" r="9" fill="#000000" />
    <circle cx="250" cy="135" r="15" fill="#000000" />
    <ellipse cx="230" cy="170" rx="20" ry="9" fill="#dc143c" />
    <ellipse cx="110" cy="140" rx="70" ry="30" fill="#ffa500" transform=" rotate(10)" />
    <polygon points="150,60 150,20 190,30" fill="#ffa500" />
    <polygon points="260,25 290,5 300,45" fill="#ffa500" />
    <polygon points="155,52 155,25 180,32" fill="#000000" />
    <polygon points="267,27 287,13 293,40" fill="#000000" />
    <polygon points="20,140 55,130 40,170" fill="#ffffff" />

    <ellipse cx="520" cy="240" rx="70" ry="20" fill="#d3d3d3" />
    <circle cx="520" cy="130" r="110" fill="#ffd700" />
    <circle cx="470" cy="95" r="40" fill="#ffffff" />
    <circle cx="530" cy="95" r="40" fill="#ffffff" />
    <circle cx="460" cy="95" r="9" fill="#000000" />
    <circle cx="520" cy="95" r="9" fill="#000000" />
    <ellipse cx="500" cy="170" rx="9" ry="20" fill="#dc143c" />
</svg>