<?xml version="1.0" standalone="no"?>
<!DOCTYPE svg PUBLIC "-//W3C//DTD SVG 20010904//EN"
 "http://www.w3.org/TR/2001/REC-SVG-20010904/DTD/svg10.dtd">
<svg version="1.0" xmlns="http://www.w3.org/2000/svg"
 width="1024.000000pt" height="316.000000pt" viewBox="0 0 1024.000000 316.000000"
 preserveAspectRatio="xMidYMid meet">

<g transform="translate(0.000000,316.000000) scale(0.100000,-0.100000)"
fill="#000000" stroke="none">
<path d="M2846 2880 l-98 -69 132 -66 c121 -61 132 -64 127 -43 -3 13 -15 70
-28 128 -12 58 -25 108 -28 112 -4 4 -51 -24 -105 -62z"/>
<path d="M1630 2694 l0 -136 43 34 c23 19 80 64 125 101 52 41 79 69 70 72
-18 7 -227 65 -233 65 -3 0 -5 -61 -5 -136z"/>
<path d="M2319 2191 c-20 -20 -29 -39 -29 -61 0 -43 47 -90 90 -90 43 0 90 47
90 90 0 22 -9 41 -29 61 -20 20 -39 29 -61 29 -22 0 -41 -9 -61 -29z"/>
<path d="M2919 2191 c-20 -20 -29 -39 -29 -61 0 -43 47 -90 90 -90 43 0 90 47
90 90 0 43 -47 90 -90 90 -22 0 -41 -9 -61 -29z"/>
<path d="M4619 2191 c-20 -20 -29 -39 -29 -61 0 -43 47 -90 90 -90 43 0 90 47
90 90 0 43 -47 90 -90 90 -22 0 -41 -9 -61 -29z"/>
<path d="M5219 2191 c-20 -20 -29 -39 -29 -61 0 -43 47 -90 90 -90 43 0 90 47
90 90 0 43 -47 90 -90 90 -22 0 -41 -9 -61 -29z"/>
<path d="M2512 1864 c-73 -37 -105 -144 -63 -212 61 -96 202 -96 261 0 38 63
18 157 -43 200 -39 28 -112 34 -155 12z"/>
<path d="M5037 1550 c-27 -31 -47 -105 -47 -170 0 -99 45 -200 90 -200 45 0
90 101 90 200 0 99 -45 200 -90 200 -10 0 -29 -13 -43 -30z"/>
<path d="M2270 1455 c-120 -38 -117 -114 4 -150 139 -42 321 12 302 89 -15 59
-198 96 -306 61z"/>
</g>
</svg>
